<mxfile host="app.diagrams.net" modified="2022-04-15T22:42:22.993Z" agent="5.0 (Windows NT 10.0; Win64; x64) AppleWebKit/537.36 (KHTML, like Gecko) Chrome/100.0.4896.88 Safari/537.36" etag="rwrYt_p29zaQbpJxsQfW" version="17.4.5" type="github">
  <diagram id="4YcpwWNDFD4PHkGgdx3B" name="Page-1">
    <mxGraphModel dx="1401" dy="530" grid="1" gridSize="10" guides="1" tooltips="1" connect="1" arrows="1" fold="1" page="1" pageScale="1" pageWidth="827" pageHeight="1169" math="0" shadow="0">
      <root>
        <mxCell id="0" />
        <mxCell id="1" parent="0" />
        <mxCell id="4F2Rx670afqxIsC0E5EW-2" value="Pokemon Red" style="ellipse;whiteSpace=wrap;html=1;" vertex="1" parent="1">
          <mxGeometry x="320" y="150" width="120" height="80" as="geometry" />
        </mxCell>
        <mxCell id="4F2Rx670afqxIsC0E5EW-5" value="Graphics" style="text;html=1;strokeColor=none;fillColor=none;align=center;verticalAlign=middle;whiteSpace=wrap;rounded=0;" vertex="1" parent="1">
          <mxGeometry x="510" y="170" width="60" height="30" as="geometry" />
        </mxCell>
        <mxCell id="4F2Rx670afqxIsC0E5EW-7" value="" style="endArrow=none;html=1;rounded=0;entryX=0;entryY=0.5;entryDx=0;entryDy=0;exitX=1;exitY=0.5;exitDx=0;exitDy=0;" edge="1" parent="1" source="4F2Rx670afqxIsC0E5EW-8" target="4F2Rx670afqxIsC0E5EW-2">
          <mxGeometry width="50" height="50" relative="1" as="geometry">
            <mxPoint x="190" y="290" as="sourcePoint" />
            <mxPoint x="400" y="220" as="targetPoint" />
          </mxGeometry>
        </mxCell>
        <mxCell id="4F2Rx670afqxIsC0E5EW-8" value="Features" style="text;html=1;strokeColor=none;fillColor=none;align=center;verticalAlign=middle;whiteSpace=wrap;rounded=0;" vertex="1" parent="1">
          <mxGeometry x="200" y="175" width="60" height="30" as="geometry" />
        </mxCell>
        <mxCell id="4F2Rx670afqxIsC0E5EW-9" value="" style="endArrow=none;html=1;rounded=0;exitX=1;exitY=0.5;exitDx=0;exitDy=0;entryX=0;entryY=1;entryDx=0;entryDy=0;" edge="1" parent="1" source="4F2Rx670afqxIsC0E5EW-10" target="4F2Rx670afqxIsC0E5EW-8">
          <mxGeometry width="50" height="50" relative="1" as="geometry">
            <mxPoint x="130" y="290" as="sourcePoint" />
            <mxPoint x="190" y="290" as="targetPoint" />
          </mxGeometry>
        </mxCell>
        <mxCell id="4F2Rx670afqxIsC0E5EW-10" value="1st gen Trainer Battles" style="text;html=1;strokeColor=none;fillColor=none;align=center;verticalAlign=middle;whiteSpace=wrap;rounded=0;" vertex="1" parent="1">
          <mxGeometry x="20" y="220" width="60" height="30" as="geometry" />
        </mxCell>
        <mxCell id="4F2Rx670afqxIsC0E5EW-11" value="" style="endArrow=none;html=1;rounded=0;exitX=1;exitY=0.5;exitDx=0;exitDy=0;entryX=0;entryY=0.5;entryDx=0;entryDy=0;" edge="1" parent="1" source="4F2Rx670afqxIsC0E5EW-2" target="4F2Rx670afqxIsC0E5EW-5">
          <mxGeometry width="50" height="50" relative="1" as="geometry">
            <mxPoint x="350" y="280" as="sourcePoint" />
            <mxPoint x="600" y="220" as="targetPoint" />
            <Array as="points" />
          </mxGeometry>
        </mxCell>
        <mxCell id="4F2Rx670afqxIsC0E5EW-12" value="" style="endArrow=none;html=1;rounded=0;exitX=1;exitY=0;exitDx=0;exitDy=0;entryX=0.023;entryY=0.397;entryDx=0;entryDy=0;entryPerimeter=0;" edge="1" parent="1" source="4F2Rx670afqxIsC0E5EW-5" target="4F2Rx670afqxIsC0E5EW-13">
          <mxGeometry width="50" height="50" relative="1" as="geometry">
            <mxPoint x="600" y="80" as="sourcePoint" />
            <mxPoint x="570" y="90" as="targetPoint" />
          </mxGeometry>
        </mxCell>
        <mxCell id="4F2Rx670afqxIsC0E5EW-13" value="Black and Gray" style="text;html=1;strokeColor=none;fillColor=none;align=center;verticalAlign=middle;whiteSpace=wrap;rounded=0;" vertex="1" parent="1">
          <mxGeometry x="620" y="130" width="60" height="30" as="geometry" />
        </mxCell>
        <mxCell id="4F2Rx670afqxIsC0E5EW-14" value="1st gen sprites" style="text;html=1;strokeColor=none;fillColor=none;align=center;verticalAlign=middle;whiteSpace=wrap;rounded=0;" vertex="1" parent="1">
          <mxGeometry x="630" y="175" width="60" height="30" as="geometry" />
        </mxCell>
        <mxCell id="4F2Rx670afqxIsC0E5EW-15" value="" style="endArrow=none;html=1;rounded=0;entryX=1;entryY=0.5;entryDx=0;entryDy=0;" edge="1" parent="1" source="4F2Rx670afqxIsC0E5EW-14" target="4F2Rx670afqxIsC0E5EW-5">
          <mxGeometry width="50" height="50" relative="1" as="geometry">
            <mxPoint x="350" y="270" as="sourcePoint" />
            <mxPoint x="400" y="220" as="targetPoint" />
            <Array as="points" />
          </mxGeometry>
        </mxCell>
        <mxCell id="4F2Rx670afqxIsC0E5EW-17" value="Random pokemon battles" style="text;html=1;strokeColor=none;fillColor=none;align=center;verticalAlign=middle;whiteSpace=wrap;rounded=0;" vertex="1" parent="1">
          <mxGeometry x="30" y="140" width="60" height="30" as="geometry" />
        </mxCell>
        <mxCell id="4F2Rx670afqxIsC0E5EW-18" value="" style="endArrow=none;html=1;rounded=0;exitX=0;exitY=0;exitDx=0;exitDy=0;entryX=1;entryY=0.75;entryDx=0;entryDy=0;" edge="1" parent="1" source="4F2Rx670afqxIsC0E5EW-8" target="4F2Rx670afqxIsC0E5EW-17">
          <mxGeometry width="50" height="50" relative="1" as="geometry">
            <mxPoint x="350" y="250" as="sourcePoint" />
            <mxPoint x="400" y="200" as="targetPoint" />
          </mxGeometry>
        </mxCell>
        <mxCell id="4F2Rx670afqxIsC0E5EW-21" style="edgeStyle=orthogonalEdgeStyle;rounded=0;orthogonalLoop=1;jettySize=auto;html=1;" edge="1" parent="1" source="4F2Rx670afqxIsC0E5EW-19" target="4F2Rx670afqxIsC0E5EW-20">
          <mxGeometry relative="1" as="geometry" />
        </mxCell>
        <mxCell id="4F2Rx670afqxIsC0E5EW-19" value="Battle start" style="strokeWidth=2;html=1;shape=mxgraph.flowchart.start_2;whiteSpace=wrap;" vertex="1" parent="1">
          <mxGeometry x="30" y="460" width="100" height="40" as="geometry" />
        </mxCell>
        <mxCell id="4F2Rx670afqxIsC0E5EW-28" style="edgeStyle=orthogonalEdgeStyle;rounded=0;orthogonalLoop=1;jettySize=auto;html=1;entryX=0;entryY=0.5;entryDx=0;entryDy=0;" edge="1" parent="1" source="4F2Rx670afqxIsC0E5EW-20" target="4F2Rx670afqxIsC0E5EW-27">
          <mxGeometry relative="1" as="geometry">
            <mxPoint x="290" y="410" as="targetPoint" />
            <Array as="points">
              <mxPoint x="240" y="410" />
            </Array>
          </mxGeometry>
        </mxCell>
        <mxCell id="4F2Rx670afqxIsC0E5EW-30" style="edgeStyle=orthogonalEdgeStyle;rounded=0;orthogonalLoop=1;jettySize=auto;html=1;entryX=-0.02;entryY=0.646;entryDx=0;entryDy=0;entryPerimeter=0;" edge="1" parent="1" source="4F2Rx670afqxIsC0E5EW-20" target="4F2Rx670afqxIsC0E5EW-29">
          <mxGeometry relative="1" as="geometry">
            <mxPoint x="250" y="540" as="targetPoint" />
            <Array as="points">
              <mxPoint x="235" y="538" />
              <mxPoint x="290" y="538" />
            </Array>
          </mxGeometry>
        </mxCell>
        <mxCell id="4F2Rx670afqxIsC0E5EW-20" value="Turn Decision" style="strokeWidth=2;html=1;shape=mxgraph.flowchart.decision;whiteSpace=wrap;" vertex="1" parent="1">
          <mxGeometry x="200" y="445" width="70" height="70" as="geometry" />
        </mxCell>
        <mxCell id="4F2Rx670afqxIsC0E5EW-27" value="Execute move" style="rounded=1;whiteSpace=wrap;html=1;absoluteArcSize=1;arcSize=14;strokeWidth=2;" vertex="1" parent="1">
          <mxGeometry x="300" y="390" width="100" height="40" as="geometry" />
        </mxCell>
        <mxCell id="4F2Rx670afqxIsC0E5EW-29" value="Use Item" style="rounded=1;whiteSpace=wrap;html=1;absoluteArcSize=1;arcSize=14;strokeWidth=2;" vertex="1" parent="1">
          <mxGeometry x="300" y="515" width="100" height="35" as="geometry" />
        </mxCell>
      </root>
    </mxGraphModel>
  </diagram>
</mxfile>
